# xmcd
#
# Track frame offsets: 
#        300
#        13554
#        30067
#        48015
#        60322
#        76149
#        90325
#        105438
#        122167
#        134601
#
# Disc length: 1991 seconds
#
# Revision: 0
# Processed by: cddbd v1.5.2PL0 Copyright (c) Steve Scherf et al.
# Submitted via: ExactAudioCopy v1.0b1
#
DISCID=6507c30a
DTITLE=Terri Corker - Lock and Key
DYEAR=2001
DGENRE=Country
TTITLE0=The Last Time
TTITLE1=Road to Reality
TTITLE2=I Couldn't Care Less
TTITLE3=Everything But the Blame
TTITLE4=Love's Way
TTITLE5=Lock and Key
TTITLE6=Dinner for One
TTITLE7=New Memories
TTITLE8=Still Breakin' Horses
TTITLE9=He Makes Me Strong
EXTD=
EXTT0=
EXTT1=
EXTT2=
EXTT3=
EXTT4=
EXTT5=
EXTT6=
EXTT7=
EXTT8=
EXTT9=
PLAYORDER=
